<svg id="Layer_1" data-name="Layer 1" xmlns="http://www.w3.org/2000/svg" viewBox="0 0 277 212.16"><defs><style>.cls-1{fill:#06a055;}.cls-2{fill:#fff;}</style></defs><path class="cls-1" d="M254.5,85H32.5A27.5,27.5,0,0,0,5,112.5v156A27.5,27.5,0,0,0,32.5,296H94.65c4.39-.15,8.77-.38,13.16-.54a192.91,192.91,0,0,1,19.86.54H254.5A27.5,27.5,0,0,0,282,268.5v-156A27.5,27.5,0,0,0,254.5,85Z" transform="translate(-5 -85)"/><ellipse class="cls-2" cx="130.5" cy="69.5" rx="36.5" ry="45.5"/><path class="cls-2" d="M107.81,295.46c9.1-.33,18,.42,27,1,15.4-17.53,5.06-57.19-24.41-91-30.79-35.34-70.79-50.88-89.34-34.71S12.45,228.69,43.24,264c12.31,14.12,26.08,25.07,39.37,32.11C91,296.32,99.4,295.77,107.81,295.46Z" transform="translate(-5 -85)"/><path class="cls-2" d="M249.29,171.8c-18.29-15.58-58.12,1.16-89,37.39-27.16,31.89-38.29,68.24-28.09,87.12l4.22.28c18.48,1.16,37,.34,55.48-.54a153.2,153.2,0,0,0,34.63-30.45C257.41,229.37,267.59,187.37,249.29,171.8Z" transform="translate(-5 -85)"/></svg>